<svg xmlns="http://www.w3.org/2000/svg" width="32" height="32" viewBox="0 0 24 24">
  <path fill="#FFFFFF" d="M7.41656 20.4777L8.9657 18.0324H15.0386L16.5893 20.4777H7.41656ZM6.27405 15.2541C6.27405 14.5695 6.82874 14.0146 7.51325 14.0146C8.19762 14.0146 8.75272 14.5695 8.75272 15.2541C8.75272 15.9384 8.19762 16.4933 7.51325 16.4933C6.82874 16.4933 6.27405 15.9384 6.27405 15.2541V15.2541ZM6.48824 5.06215C6.48824 4.29854 7.10744 3.68056 7.8701 3.68056H11.5873V6.77004H6.48824V5.06215ZM12.0069 9.05629C12.8625 9.05629 13.5552 9.75108 13.5552 10.6066C13.5552 11.4619 12.8625 12.1542 12.0069 12.1542C11.1517 12.1542 10.4572 11.4619 10.4572 10.6066C10.4572 9.75108 11.1517 9.05629 12.0069 9.05629V9.05629ZM12.4239 3.68056H16.1349C16.8984 3.68056 17.5164 4.29854 17.5164 5.06215V6.7695H12.4239V3.68056ZM16.4912 16.4933C15.8064 16.4933 15.2518 15.9384 15.2518 15.2541C15.2518 14.5695 15.8064 14.0146 16.4912 14.0146C17.1756 14.0146 17.7304 14.5695 17.7304 15.2541C17.7304 15.9384 17.1756 16.4933 16.4912 16.4933V16.4933ZM16.8156 18.3492L16.8832 18.3515C18.0367 18.3515 18.9717 17.4167 18.9717 16.2634V5.21361C18.9717 4.49421 18.7211 3.7951 18.2609 3.23973L17.4558 2.26286C16.9303 1.62893 16.1766 1.22461 15.3562 1.15159C14.2527 1.05125 13.1328 1 12.0041 1C10.8721 1 9.75433 1.05125 8.64832 1.15159C7.82954 1.22461 7.07525 1.62893 6.55207 2.26286L5.74396 3.23973C5.28528 3.7951 5.03417 4.49421 5.03417 5.21361V16.2634C5.03417 17.4167 5.96911 18.3515 7.12231 18.3515L7.18857 18.3492L4.25 23H5.82253L6.77722 21.4894H17.2286L18.1833 23H19.7543L16.8156 18.3492Z"/>
</svg>
