<?xml version="1.0" encoding="UTF-8"?>
<svg width="200" height="80" viewBox="0 0 200 80" version="1.1" xmlns="http://www.w3.org/2000/svg">
  <g fill="#FFFFFF">
    <path d="M40,20 C51.045695,20 60,28.954305 60,40 C60,51.045695 51.045695,60 40,60 C28.954305,60 20,51.045695 20,40 C20,28.954305 28.954305,20 40,20 Z M40,25 C31.715729,25 25,31.715729 25,40 C25,48.284271 31.715729,55 40,55 C48.284271,55 55,48.284271 55,40 C55,31.715729 48.284271,25 40,25 Z"/>
    <path d="M85,30 L115,30 L115,35 L95,35 L95,42 L112,42 L112,47 L95,47 L95,60 L90,60 L90,30 Z"/>
  </g>
</svg>
