<svg xmlns="http://www.w3.org/2000/svg" width="24" height="24" viewBox="0 0 24 24">
  <path fill="#FFFFFF" d="M12 2a2 2 0 100 4 2 2 0 000-4zm-1.5 6h3a1.5 1.5 0 011.493 1.356L15 9.5l-.26 3.07-1.674-.743L11.999 22h-1.5l.762-8.387-1.47.653L9.32 11.5h-1.827l2.298-3.22a1.5 1.5 0 011.174-.777L11.5 7.5a1.5 1.5 0 011.5 1.5 1.5 1.5 0 01-1.5 1.5 1.5 1.5 0 01-1.06-.44l-1-1 .72-1.01 1 1a1.5 1.5 0 01.34.45h.002L10.148 11h1.128l.105-.021.62.274.181-2.106a1.5 1.5 0 01-1.18-1.266L11 7.667a1.5 1.5 0 01-.5-.167z"/>
</svg>
